HIERARCHY
ROOT Hips
{
	OFFSET 0.000000 0.000000 0.000000
	CHANNELS 6 Xposition Yposition Zposition Zrotation Yrotation Xrotation 
	JOINT LHipJoint
	{
		OFFSET 0.000000 0.000000 0.000000
		CHANNELS 3 Zrotation Yrotation Xrotation
		JOINT LeftUpLeg
		{
			OFFSET 1.363060 -1.794630 0.839290
			CHANNELS 3 Zrotation Yrotation Xrotation
			JOINT LeftLeg
			{
				OFFSET 2.448110 -6.726130 0.000000
				CHANNELS 3 Zrotation Yrotation Xrotation
				JOINT LeftFoot
				{
					OFFSET 2.562200 -7.039590 0.000000
					CHANNELS 3 Zrotation Yrotation Xrotation
					JOINT LeftToeBase
					{
						OFFSET 0.157640 -0.433110 2.322550
						CHANNELS 3 Zrotation Yrotation Xrotation
						End Site
						{
							OFFSET 0.000000 0.000000 0.000000
						}
					}
				}
			}
		}
	}
	JOINT RHipJoint
	{
		OFFSET 0.000000 0.000000 0.000000
		CHANNELS 3 Zrotation Yrotation Xrotation
		JOINT RightUpLeg
		{
			OFFSET -1.305520 -1.794630 0.839290
			CHANNELS 3 Zrotation Yrotation Xrotation
			JOINT RightLeg
			{
				OFFSET -2.542530 -6.985550 0.000000
				CHANNELS 3 Zrotation Yrotation Xrotation
				JOINT RightFoot
				{
					OFFSET -2.568260 -7.056230 0.000000
					CHANNELS 3 Zrotation Yrotation Xrotation
					JOINT RightToeBase
					{
						OFFSET -0.164730 -0.452590 2.363150
						CHANNELS 3 Zrotation Yrotation Xrotation
						End Site
						{
							OFFSET 0.000000 0.000000 0.000000
						}
					}
				}
			}
		}
	}
	JOINT LowerBack
	{
		OFFSET 0.000000 0.000000 0.000000
		CHANNELS 3 Zrotation Yrotation Xrotation
		JOINT Spine
		{
			OFFSET 0.028270 2.035590 -0.193380
			CHANNELS 3 Zrotation Yrotation Xrotation
			JOINT Spine1
			{
				OFFSET 0.056720 2.048850 -0.042750
				CHANNELS 3 Zrotation Yrotation Xrotation
				JOINT Neck
				{
					OFFSET 0.000000 0.000000 0.000000
					CHANNELS 3 Zrotation Yrotation Xrotation
					JOINT Neck1
					{
						OFFSET -0.054170 1.746240 0.172020
						CHANNELS 3 Zrotation Yrotation Xrotation
						JOINT Head
						{
							OFFSET 0.104070 1.761360 -0.123970
							CHANNELS 3 Zrotation Yrotation Xrotation
							End Site
							{
								OFFSET 0.000000 0.000000 0.000000
							}
						}
					}
				}
				JOINT LeftShoulder
				{
					OFFSET 0.000000 0.000000 0.000000
					CHANNELS 3 Zrotation Yrotation Xrotation
					JOINT LeftArm
					{
						OFFSET 3.362410 1.200890 -0.311210
						CHANNELS 3 Zrotation Yrotation Xrotation
						JOINT LeftForeArm
						{
							OFFSET 4.983000 -0.000000 -0.000000
							CHANNELS 3 Zrotation Yrotation Xrotation
							JOINT LeftHand
							{
								OFFSET 3.483560 -0.000000 -0.000000
								CHANNELS 3 Zrotation Yrotation Xrotation
								JOINT LeftFingerBase
								{
									OFFSET 0.000000 0.000000 0.000000
									CHANNELS 3 Zrotation Yrotation Xrotation
									JOINT LeftHandIndex1
									{
										OFFSET 0.715260 -0.000000 -0.000000
										CHANNELS 3 Zrotation Yrotation Xrotation
										End Site
										{
											OFFSET 0.000000 0.000000 0.000000
										}
									}
								}
								JOINT LThumb
								{
									OFFSET 0.000000 0.000000 0.000000
									CHANNELS 3 Zrotation Yrotation Xrotation
									End Site
									{
										OFFSET 0.000000 0.000000 0.000000
									}
								}
							}
						}
					}
				}
				JOINT RightShoulder
				{
					OFFSET 0.000000 0.000000 0.000000
					CHANNELS 3 Zrotation Yrotation Xrotation
					JOINT RightArm
					{
						OFFSET -3.136600 1.374050 -0.404650
						CHANNELS 3 Zrotation Yrotation Xrotation
						JOINT RightForeArm
						{
							OFFSET -5.241900 -0.000000 -0.000000
							CHANNELS 3 Zrotation Yrotation Xrotation
							JOINT RightHand
							{
								OFFSET -3.444170 -0.000000 -0.000000
								CHANNELS 3 Zrotation Yrotation Xrotation
								JOINT RightFingerBase
								{
									OFFSET 0.000000 0.000000 0.000000
									CHANNELS 3 Zrotation Yrotation Xrotation
									JOINT RightHandIndex1
									{
										OFFSET -0.622530 -0.000000 -0.000000
										CHANNELS 3 Zrotation Yrotation Xrotation
										End Site
										{
											OFFSET 0.000000 0.000000 0.000000
										}
									}
								}
								JOINT RThumb
								{
									OFFSET 0.000000 0.000000 0.000000
									CHANNELS 3 Zrotation Yrotation Xrotation
									End Site
									{
										OFFSET 0.000000 0.000000 0.000000
									}
								}
							}
						}
					}
				}
			}
		}
	}
}
MOTION
Frames: 8
Frame Time: 0.008333
4.337110 17.418466 -0.525443 -10.384889 80.901284 16.743544 -10.449664 0.614158 1.757961 -4.121174 -0.104862 -25.131736 -1.693177 -0.812763 12.130856 1.449921 8.035576 -5.926992 0.381100 0.000000 -42.299400 9.798987 -0.157242 0.337058 9.903387 1.405727 -47.842741 -0.117169 -3.913247 56.467004 -1.210673 -4.871598 -1.716992 -0.790400 -0.000000 -48.517501 -2.467034 -1.702919 -1.135892 -1.424774 -1.658155 -3.090295 -7.587166 -1.779710 0.735488 10.311820 -3.334643 -5.403487 -3.596107 -0.279052 0.417101 0.000000 0.000000 0.000000 -6.465281 2.204177 3.929063 -50.737567 -17.994265 21.160303 -4.035054 -43.678342 0.023192 -11.218853 -0.239187 0.034732 -0.102632 0.103559 0.000000 0.000000 0.000000 0.000000 0.000000 0.000000 0.000000 16.266897 -1.251758 1.726287 62.769330 6.605899 18.451794 2.726788 38.356483 0.019736 4.272539 11.432483 0.430359 0.038979 -0.146831 -0.000000 0.000000 0.000000 0.000000 0.000000 0.000000 0.000000 
4.609478 17.441475 -0.502711 -10.816330 81.115777 16.114991 -10.553544 0.760752 1.604055 -4.111178 0.479079 -23.300111 -1.714633 -0.842010 10.810868 1.326789 7.621317 -5.121135 0.462300 0.000000 -43.140100 9.611639 -0.093817 0.472059 10.247580 1.542274 -49.001738 0.191838 -3.840935 53.948006 -1.002611 -3.676236 -1.872651 -0.658800 -0.000001 -49.755701 -1.936165 -1.910662 -1.073750 -1.328762 -1.903187 -3.064669 -7.740809 -2.017852 0.757626 10.466924 -3.343360 -5.352144 -3.671289 -0.284599 0.433823 0.000000 0.000000 0.000000 -6.228072 2.046791 3.986275 -49.887552 -19.441253 21.389174 -3.869956 -46.127173 0.026272 -11.095965 -0.426651 0.053894 -0.096302 0.118567 0.000000 0.000000 0.000000 0.000000 0.000000 0.000000 0.000000 16.731293 -1.405200 1.735357 63.183740 5.401199 17.387617 2.811303 36.858142 0.019491 4.464625 11.479519 0.451334 0.038944 -0.137680 -0.000000 0.000000 0.000000 0.000000 0.000000 0.000000 0.000000 
4.882340 17.452847 -0.476669 -10.708876 81.384757 16.048667 -10.644352 0.904725 1.447152 -4.151356 1.041965 -21.632126 -1.748639 -0.854194 9.748904 1.200757 7.123116 -4.393762 0.516300 0.000000 -44.143600 9.437905 -0.037996 0.645760 10.411894 1.680025 -50.089438 0.519745 -3.743027 51.149010 -0.794937 -2.526490 -1.855388 -0.546300 0.000000 -50.889100 -1.500670 -2.136175 -1.051929 -1.249920 -2.160033 -3.044800 -7.879246 -2.267378 0.783483 10.623158 -3.410021 -5.308342 -3.739325 -0.289693 0.449262 0.000000 0.000000 0.000000 -5.924701 1.849215 4.036227 -48.957186 -20.828162 21.453816 -3.689676 -48.556201 0.029330 -10.956534 -0.578784 0.069347 -0.089231 0.134615 -0.000000 0.000000 0.000000 0.000000 0.000000 0.000000 0.000000 17.173163 -1.623005 1.742678 63.486141 4.176013 16.389330 2.882486 35.644893 0.019208 4.633670 11.512938 0.469511 0.038964 -0.129348 -0.000000 0.000000 0.000000 0.000000 0.000000 0.000000 0.000000 
5.155334 17.452948 -0.446639 -9.970882 81.704997 16.630499 -10.722421 1.042878 1.280814 -4.238617 1.580213 -20.082637 -1.795446 -0.854275 8.897208 1.071603 6.541447 -3.740598 0.543800 -0.000000 -45.351100 9.279837 0.013824 0.857356 10.377694 1.825468 -51.093853 0.860115 -3.612909 48.076013 -0.595308 -1.473120 -1.670050 -0.451000 -0.000000 -51.768500 -1.172650 -2.377463 -1.059073 -1.190846 -2.425896 -3.027300 -8.000811 -2.525111 0.816785 10.780475 -3.554828 -5.281233 -3.798606 -0.294126 0.460624 0.000000 0.000000 0.000000 -5.543738 1.624762 4.075100 -47.955872 -22.175370 21.367360 -3.495391 -50.945510 0.032387 -10.816242 -0.704841 0.081991 -0.081199 0.151650 0.000000 0.000000 0.000000 0.000000 0.000000 0.000000 0.000000 17.589828 -1.923988 1.746758 63.698689 2.954180 15.486650 2.940070 34.702118 0.018895 4.765371 11.537459 0.483590 0.039133 -0.121817 -0.000000 0.000000 0.000000 0.000000 0.000000 0.000000 0.000000 
5.427992 17.442081 -0.412325 -8.535386 82.071202 17.919652 -10.787953 1.172048 1.098247 -4.364718 2.094139 -18.603527 -1.853913 -0.846404 8.205476 0.939241 5.878737 -3.149161 0.547000 -0.000000 -46.786400 9.139929 0.064656 1.105731 10.134402 1.982863 -52.004090 1.205523 -3.443415 44.740295 -0.411689 -0.563214 -1.335206 -0.372500 0.000000 -52.318800 -0.953597 -2.631183 -1.082639 -1.152092 -2.697204 -3.012149 -8.103567 -2.787868 0.848363 10.934596 -3.761201 -5.264014 -3.848722 -0.297951 0.469604 0.000000 0.000000 0.000000 -5.069621 1.348092 4.100541 -46.902157 -23.440856 21.119507 -3.285751 -53.302928 0.035466 -10.694154 -0.803423 0.092025 -0.071773 0.169569 -0.000000 0.000000 0.000000 0.000000 0.000000 0.000000 0.000000 17.971242 -2.288939 1.749470 63.850845 1.709972 14.644864 2.984178 34.026380 0.018551 4.872440 11.546716 0.494672 0.039266 -0.115051 -0.000000 0.000000 0.000000 0.000000 0.000000 0.000000 0.000000 
5.699963 17.420660 -0.373740 -6.368095 82.475113 19.944169 -10.839773 1.289347 0.892664 -4.516108 2.587080 -17.150588 -1.921832 -0.833698 7.625358 0.804375 5.141494 -2.603078 0.529200 -0.000000 -48.446800 9.021551 0.118164 1.388935 9.680914 2.153691 -52.810721 1.547569 -3.226566 41.153828 -0.251404 0.166507 -0.878289 -0.312600 0.000000 -52.564600 -0.832194 -2.895073 -1.108186 -1.131394 -2.972116 -2.994459 -8.185806 -3.053239 0.886236 11.081201 -4.062158 -5.270374 -3.887557 -0.300870 0.472241 0.000000 0.000000 0.000000 -4.506135 1.040514 4.106838 -45.800038 -24.651384 20.727402 -3.062346 -55.615178 0.038597 -10.602485 -0.881162 0.100243 -0.060664 0.188239 -0.000000 0.000000 0.000000 0.000000 0.000000 0.000000 0.000000 18.309656 -2.751766 1.750579 63.954027 0.504253 13.923886 3.016562 33.569586 0.018214 4.932262 11.555538 0.500858 0.039653 -0.109021 -0.000000 0.000000 0.000000 0.000000 0.000000 0.000000 0.000000 
5.970900 17.389131 -0.331300 -3.475978 82.906531 22.689299 -10.874387 1.393371 0.658381 -4.676167 3.065119 -15.683486 -1.996264 -0.818251 7.114421 0.668492 4.340353 -2.083886 0.494300 -0.000000 -50.300800 8.929731 0.178693 1.704322 9.025143 2.333703 -53.502466 1.876604 -2.953964 37.327689 -0.120320 0.694636 -0.331559 -0.275500 0.000000 -52.601700 -0.787196 -3.164832 -1.122155 -1.124799 -3.247478 -2.974078 -8.247202 -3.318538 0.921880 11.213826 -4.430158 -5.291875 -3.915401 -0.302973 0.470677 0.000000 0.000000 0.000000 -3.856293 0.688450 4.093587 -44.655939 -25.779827 20.188784 -2.826261 -57.887937 0.041818 -10.552667 -0.937785 0.106845 -0.047604 0.207532 -0.000000 0.000000 0.000000 0.000000 0.000000 0.000000 0.000000 18.594383 -3.282008 1.752560 64.029722 -0.689507 13.272322 3.038866 33.320408 0.017886 4.974475 11.554201 0.504844 0.040030 -0.103652 -0.000000 0.000000 0.000000 0.000000 0.000000 0.000000 0.000000 
6.240553 17.348018 -0.285690 0.088146 83.352631 26.094467 -10.885976 1.485093 0.391808 -4.827237 3.534695 -14.170535 -2.073826 -0.800651 6.638677 0.534296 3.492723 -1.575138 0.445800 -0.000000 -52.292301 8.870872 0.253509 2.046820 8.184783 2.512460 -54.065668 2.181129 -2.617460 33.272846 -0.021967 1.017895 0.273606 -0.265400 -0.000000 -52.576200 -0.790002 -3.435556 -1.111258 -1.126565 -3.519994 -2.948122 -8.287729 -3.580416 0.957228 11.326745 -4.869434 -5.332243 -3.931539 -0.304145 0.463749 0.000000 0.000000 0.000000 -3.136097 0.304545 4.058338 -43.467384 -26.837568 19.512030 -2.580546 -60.112235 0.045170 -10.549644 -0.977446 0.112430 -0.032440 0.227297 -0.000000 0.000000 0.000000 0.000000 0.000000 0.000000 0.000000 18.817266 -3.882781 1.756807 64.085212 -1.843713 12.703971 3.053691 33.239765 0.017592 5.003845 11.546369 0.507234 0.040466 -0.098878 -0.000000 0.000000 0.000000 0.000000 0.000000 0.000000 0.000000 
